<svg id="Layer_1" data-name="Layer 1" xmlns="http://www.w3.org/2000/svg" viewBox="0 0 138.9 38.26"><title>Home 4U</title><path d="M442.43,397.52v5.12l16-17.81,16,17.81v-5.12l-16-17.81Z" transform="translate(-442.43 -364.38)" style="fill:#46109b"/><path d="M470.63,378v-4.52l-3-3.33v4.52l-9.24-10.32-16,17.82v10.15l16-17.81,16,17.81V382.2Z" transform="translate(-442.43 -364.38)" style="fill:#46109b"/><path d="M483.22,378.62v6.62h8.49v-6.62H494v15.82h-2.29V387h-8.49v7.41H481V378.62Z" transform="translate(-442.43 -364.38)" style="fill:#46109b"/><path d="M512.91,386.37c0,5.44-3.67,8.33-8.14,8.33-4.64,0-7.89-3.24-7.89-8,0-5,3.46-8.3,8.15-8.3S512.91,381.68,512.91,386.37Zm-13.61.26c0,3.38,2,6.4,5.6,6.4s5.62-3,5.62-6.57c0-3.14-1.82-6.43-5.6-6.43S499.3,383.15,499.3,386.63Z" transform="translate(-442.43 -364.38)" style="fill:#46109b"/><path d="M530.63,387.5c-.13-2.21-.29-4.86-.26-6.83h-.08c-.6,1.85-1.33,3.82-2.21,6l-3.1,7.68h-1.72l-2.83-7.54a62.55,62.55,0,0,1-2-6.14h0c-.06,2-.19,4.62-.34,7l-.47,6.78h-2.16l1.22-15.82h2.89l3,7.65c.73,2,1.33,3.69,1.77,5.33h.08c.44-1.59,1.07-3.33,1.85-5.33l3.12-7.65h2.89l1.09,15.82h-2.21Z" transform="translate(-442.43 -364.38)" style="fill:#46109b"/><path d="M545.85,387H539v5.7h7.6v1.71h-9.87V378.62h9.48v1.72H539v5h6.82Z" transform="translate(-442.43 -364.38)" style="fill:#46109b"/><path d="M561.35,394.44v-4.15h-7.86v-1.36l7.55-9.74h2.47v9.48h2.37v1.62h-2.37v4.15Zm0-5.77v-5.09c0-.8,0-1.6.08-2.4h-.08c-.52.89-.94,1.55-1.41,2.26l-4.13,5.18v.05Z" transform="translate(-442.43 -364.38)" style="fill:#46109b"/><path d="M570.69,378.62V388c0,3.54,1.74,5,4.08,5,2.61,0,4.27-1.55,4.27-5v-9.37h2.29v9.23c0,4.85-2.84,6.85-6.63,6.85-3.6,0-6.3-1.85-6.3-6.76v-9.32Z" transform="translate(-442.43 -364.38)" style="fill:#46109b"/></svg>